<svg width="120" height="34" viewBox="0 0 120 34" fill="none" xmlns="http://www.w3.org/2000/svg">
<path d="M86.4174 33.961C80.1369 33.961 73.9695 33.961 67.7034 33.961C67.7034 32.7583 67.7034 31.7246 67.7034 30.4077C72.5797 30.4077 77.3581 30.4077 82.3339 30.4077C82.3339 26.4027 82.3339 22.6759 82.3339 18.7106C77.8803 18.7106 73.4839 18.7106 68.942 18.7106C68.942 17.3725 68.942 16.2628 68.942 14.8105C73.3868 14.8105 77.8421 14.8105 82.4103 14.8105C82.4103 11.1311 82.4103 7.78667 82.4103 4.08446C77.4863 4.08446 72.6434 4.08446 67.7074 4.08446C67.7074 2.76327 67.7074 1.79902 67.7074 0.636841C73.9202 0.636841 80.086 0.636841 86.4182 0.636841C86.4174 11.6826 86.4174 22.6988 86.4174 33.961Z" fill="white"/>
<path d="M34.5442 33.989C34.5442 32.8133 34.5442 31.7814 34.5442 30.401C39.4094 30.401 44.2467 30.401 49.2178 30.401C49.2178 26.3816 49.2178 22.7031 49.2178 18.709C44.78 18.709 40.3248 18.709 35.751 18.709C35.751 17.2872 35.751 16.1791 35.751 14.819C40.2587 14.819 44.6495 14.819 49.1971 14.819C49.1971 11.1566 49.1971 7.74274 49.1971 4.03122C44.3096 4.03122 39.4612 4.03122 34.51 4.03122C34.51 2.77177 34.51 1.80837 34.51 0.641968C40.8112 0.641968 47.0391 0.641968 53.2965 0.641968C53.2965 11.8214 53.2965 22.8367 53.2965 33.9882C47.0041 33.989 40.8422 33.989 34.5442 33.989Z" fill="white"/>
<path d="M18.3686 30.4813C18.3686 31.7822 18.3686 32.8192 18.3686 34C13.8799 34 9.5003 34 4.96945 34C4.96945 32.8556 4.96945 31.8237 4.96945 30.4915C6.43569 30.3951 7.93297 30.2961 9.55284 30.1887C9.55284 21.5324 9.55284 12.9954 9.55284 4.2757C7.61457 4.2757 5.72804 4.2757 3.66003 4.2757C3.58838 5.8904 3.51754 7.49494 3.44112 9.22637C2.24075 9.22637 1.19082 9.22637 0.000796004 9.22637C0 6.37252 0 3.59988 0 0.633545C4.51414 0.633545 9.03464 0.633545 13.7366 0.633545C13.7366 10.5307 13.7366 20.2391 13.7366 30.1692C15.3302 30.2766 16.7607 30.3731 18.3686 30.4813Z" fill="white"/>
<path d="M116.044 4.16336C111.686 4.16336 107.745 4.16336 103.487 4.16336C103.487 6.84719 103.487 9.42529 103.487 12.1337C102.267 12.1337 101.364 12.1337 100.254 12.1337C100.254 8.35954 100.254 4.55583 100.254 0.612549C106.825 0.612549 113.369 0.612549 120 0.612549C120 11.797 120 22.8081 120 33.9748C118.704 33.9748 117.506 33.9748 116.044 33.9748C116.044 24.0624 116.044 14.2161 116.044 4.16336Z" fill="white"/>
</svg>
